<svg viewBox="0 0 100 100" xmlns="http://www.w3.org/2000/svg" role="img" aria-label="KCG Router logo">
  <title>KCG Router</title>
  <defs>
    <linearGradient id="g" x1="0" y1="0" x2="1" y2="1">
      <stop offset="0" stop-color="#6D5CFB"/>
      <stop offset="1" stop-color="#4C3FD9"/>
    </linearGradient>
  </defs>

  <path d="
    M 14 74
    L 14 44
    C 14 36 16 29 20 23
    L 31 9
    L 39 24
    C 42.5 22.8 46.2 22 50 22
    C 53.8 22 57.5 22.8 61 24
    L 69 9
    L 80 23
    C 84 29 86 36 86 44
    L 86 62
    C 86 76 76 86 62 86
    L 38 86
    C 27 86 19 81 16 74
  " stroke="url(#g)" stroke-width="10" stroke-linecap="round" stroke-linejoin="round" fill="none"/>

  <circle cx="14" cy="74" r="7" fill="url(#g)"/>
  <circle cx="34" cy="52" r="6" fill="url(#g)"/>
  <circle cx="66" cy="52" r="6" fill="url(#g)"/>
  <circle cx="50" cy="86" r="7" fill="url(#g)"/>
</svg>
